<svg xmlns="http://www.w3.org/2000/svg" viewBox="-31.1 -62.2 150.25 191.7"><path d="M-7.35 30.35 L-7 30.35 L-7.35 31.75 Q-7 32.45 -7.35 32.45 L-8.05 34.6 L-7 34.6 L-7.35 36 L-7.35 36.75 L-7 37.45 L-5.55 37.45 Q-4.5 37.45 -4.5 38.15 L-6.65 41 Q-8.05 41.7 -8.4 42.4 Q-9.1 48.75 -8.05 49.5 Q-7 50.9 -7.35 53.05 Q-9.1 56.55 -8.75 59.4 L-10.15 67.9 L-9.8 82.1 Q-9.45 85.65 -9.45 96.95 L-12.65 99.1 Q-12.3 100.5 -9.45 100.5 Q-8.4 100.5 -5.55 99.1 Q-3.8 98.4 -4.15 97.65 Q-4.5 94.85 -4.15 83.5 Q-4.5 81.35 -4.15 80.65 Q-3.8 77.85 -3.8 76.4 L-3.1 72.85 L-0.95 81.35 Q-1.3 82.1 -0.95 82.8 L-0.95 86.35 Q-1.3 92.7 -1.65 93.4 L-2.35 96.25 Q-4.85 99.8 -4.15 100.5 L-0.6 101.2 L1.9 99.1 L1.9 96.95 Q3.3 94.15 3.3 92.7 Q5.4 83.5 4.7 80.65 Q3.65 72.85 4 71.45 L4.35 64.35 Q3.65 61.55 4.35 60.8 Q8.6 55.15 8.95 53.75 Q10.4 49.5 7.9 43.8 Q7.2 39.55 4.35 39.55 Q2.6 39.55 0.45 37.45 L0.8 36 Q0.8 35.3 1.15 34.6 Q1.5 31.75 1.15 30.35 L-2 27.5 Q-5.9 27.5 -7.35 29.65 L-7.35 30.35 M0 0 M38.7 -27.5 L39.75 -35.25 L41.9 -38.1 L44.7 -38.8 Q45.8 -38.8 45.8 -40.25 Q44.7 -41.65 45.05 -41.65 Q43.65 -45.2 47.2 -45.9 Q51.1 -47.3 51.45 -43.8 Q51.1 -40.95 50.4 -40.95 Q50.4 -38.8 52.85 -38.8 Q53.95 -38.1 55.7 -37.4 L56.05 -34.55 L57.85 -26.75 L56.05 -21.1 Q55 -21.1 54.65 -16.15 L55 -16.15 L55 -5.5 L55.7 4.4 Q54.65 5.1 56.4 7.25 Q57.85 9.4 56.4 10.1 L53.6 8.65 Q51.45 7.25 51.45 5.85 L51.45 5.1 Q49.7 4.4 50.05 0.85 L50.4 -2.65 Q50.75 -5.5 50.05 -6.2 L48.6 -15.45 L48.25 5.1 Q47.9 5.85 47.9 6.55 Q42.95 10.1 40.8 8.65 Q41.9 7.25 42.25 7.25 Q42.95 5.85 43.65 5.1 L43.3 5.1 L42.6 -16.15 Q42.25 -16.15 40.1 -21.8 Q39.4 -26.05 38.7 -27.5 M0 0 M-21.5 6.95 L-22.2 7.65 L-22.55 8.4 L-23.3 8.4 L-23.3 9.8 L-23.65 10.5 L-23.3 11.2 L-22.95 12.65 L-22.55 13.35 L-22.2 13.35 L-22.2 14.75 L-21.5 14.75 L-21.5 15.45 L-21.85 15.45 L-22.2 16.15 L-23.65 16.15 L-25.75 16.9 L-26.45 16.9 L-27.2 19 L-27.2 19.7 L-27.9 21.85 L-27.9 22.55 L-27.55 23.25 L-27.55 23.95 L-27.2 23.95 L-27.2 24.7 L-27.55 24.7 L-27.55 25.4 L-27.2 25.4 L-27.2 26.1 L-26.45 26.8 L-25.75 28.2 L-25.75 28.95 L-23.3 28.95 L-23.3 29.65 L-24.35 31.75 L-24.7 33.2 L-25.4 40.25 L-29.3 60.8 L-29.3 61.55 L-30 62.25 L-30 62.95 L-30.7 65.05 L-31.1 65.8 L-31.1 68.6 L-30.7 68.6 L-30.7 69.35 L-30.35 69.35 L-29.65 70.05 L-29.3 69.35 L-28.95 69.35 L-28.25 68.6 L-27.9 67.9 L-27.9 65.8 L-27.55 64.35 L-27.55 63.65 L-27.2 62.25 L-26.8 61.55 L-26.45 60.1 L-22.95 60.8 L-22.2 53.75 L-19.05 39.55 L-18.65 43.8 L-19.75 60.1 L-17.95 60.8 L-17.95 63.65 L-18.3 64.35 L-18.65 64.35 L-18.65 65.05 L-17.25 68.6 L-16.55 68.6 L-16.9 67.2 L-16.55 66.5 L-16.2 67.2 L-15.85 67.2 L-15.15 68.6 L-14.4 68.6 L-14.05 69.35 L-11.25 69.35 L-10.9 68.6 L-11.25 67.9 L-11.6 67.9 L-12.3 67.2 L-13.35 66.5 L-13.7 66.5 L-14.8 64.35 L-15.15 64.35 L-15.5 63.65 L-15.5 60.8 L-12.65 60.8 L-12.3 43.8 L-12.65 36.75 L-13.7 31.05 L-14.8 28.95 L-14.4 28.2 L-11.6 28.2 L-11.25 27.5 L-10.9 26.1 L-10.5 25.4 L-10.9 23.95 L-10.9 22.55 L-11.6 21.15 L-12.65 18.3 L-13 18.3 L-14.4 17.6 L-16.2 16.15 L-16.9 16.15 L-17.25 15.45 L-17.25 14.75 L-16.9 14.75 L-16.55 14.05 L-16.55 13.35 L-16.2 13.35 L-15.85 12.65 L-15.85 11.9 L-15.5 11.2 L-15.5 9.1 L-15.85 9.1 L-15.85 8.4 L-16.2 7.65 L-16.9 7.65 L-17.25 6.95 L-18.3 6.95 L-19.4 6.25 L-20.45 6.95 L-21.5 6.95 M0 0 M27.05 50.85 L25.95 51.55 L25.95 53.7 L26.35 55.1 L26.35 55.8 L26.7 56.5 L26.7 57.25 L27.05 57.25 L27.05 58.65 L25.95 60.05 L25.6 60.05 L21.35 60.75 L19.6 61.5 L19.25 62.2 L18.9 66.45 L18.2 67.85 L16.05 74.25 L16.05 77.8 L19.25 82.75 L21 86.3 L21.7 86.3 L21.7 87.7 L22.1 91.95 L22.45 92.65 L22.1 93.35 L21 103.3 L20.3 106.15 L20.3 108.95 L19.25 111.8 L18.9 116.05 L17.45 121.7 L17.45 122.45 L18.2 122.45 L17.45 123.85 L16.05 125.25 L15.7 126.7 L15 127.4 L15 129.5 L18.55 129.5 L19.6 128.8 L20.65 126.7 L21.35 126 L23.15 125.25 L23.15 122.45 L24.55 122.45 L25.25 116.75 L27.75 108.25 L28.45 106.85 L29.5 100.45 L31.3 94.1 L31.3 103.3 L31.65 104.7 L30.95 106.85 L30.95 107.55 L27.75 121.7 L27.75 123.15 L28.45 123.15 L28.45 125.25 L29.15 125.25 L30.6 126 L31.3 126.7 L31.65 127.4 L32.35 128.1 L32.7 128.1 L34.1 128.8 L37.3 128.8 L38 128.1 L38 127.4 L37.65 126.7 L36.25 125.25 L35.55 123.85 L34.5 123.15 L35.2 123.15 L35.2 121.7 L37.65 108.95 L38.35 107.55 L39.8 96.2 L39.8 93.35 L41.2 92.65 L44.4 90.55 L43.35 84.85 L43.7 84.85 L45.1 80.6 L45.45 78.5 L45.8 77.8 L45.8 75.65 L44.4 71.4 L42.65 68.55 L41.9 65.75 L38.75 60.05 L38 60.05 L36.6 60.75 L34.1 60.05 L33.05 59.35 L33.4 57.95 L34.1 57.95 L34.85 56.5 L34.85 55.8 L34.5 55.8 L35.2 54.4 L34.85 53.7 L34.85 52.25 L34.1 50.85 L33.4 50.15 L31.65 50.15 L30.2 49.45 L28.45 49.45 L27.05 50.85 M0 0 M108.85 -28.9 L107.45 -28.9 L107.45 -28.2 L104.6 -28.2 Q104.25 -28.2 103.9 -26.75 L103.9 -26.05 L98.95 -26.05 L97.85 -26.75 L97.85 -26.05 L97.5 -25.35 L95.75 -22.5 L95.4 -21.8 L95.4 -21.1 L95.05 -21.1 L94.7 -20.4 L94.35 -20.4 Q93.95 -20.4 93.25 -21.1 L90.8 -21.1 L90.8 -21 Q90.8 -20.4 90.45 -20.4 Q86.9 -17.55 86.9 -10.45 L86.9 -8.35 Q86.9 -1.95 90.45 3.7 L90.8 3.7 L92.55 5.1 L94.7 5.1 L95.05 4.4 L95.75 4.4 L97.5 2.3 L97.5 1.6 L98.2 -0.55 L98.95 -0.55 Q99.65 -0.55 100.35 -3.4 L102.5 -3.4 L101.05 -0.55 L100.7 -0.55 L100.7 0.85 L104.6 0.85 L104.6 0.15 L102.5 0.15 L102.1 -0.55 L102.1 0.15 L101.4 0.15 L101.4 -0.55 L103.2 -3.4 Q103.55 -3.4 103.2 -4.8 L101.75 -4.8 L107.8 -16.85 Q107.8 -16.15 108.15 -14.7 L107.1 -11.9 L106.75 -5.5 Q106.75 -4.1 107.1 -1.25 L107.1 -0.55 L108.15 3 Q108.5 3.7 108.85 3.7 L108.85 4.4 Q109.55 5.85 109.9 5.85 L110.65 6.55 L110.65 7.25 L113.45 7.95 Q118.8 7.95 118.8 -4.8 Q118.05 -13.3 114.5 -16.85 Q113.1 -18.25 112.4 -18.25 L111.35 -18.25 L111.35 -18.95 L110.25 -18.95 L109.9 -18.95 L109.9 -19.7 Q109.2 -24.65 109.2 -26.05 L108.85 -26.75 L113.45 -26.75 L115.95 -26.05 Q119.15 -23.95 116.3 -22.5 L114.15 -21.8 Q113.8 -21.8 114.5 -20.4 L116.65 -21.1 L118.05 -22.5 L118.05 -23.25 L118.8 -23.25 L118.8 -22.5 L118.4 -21.1 L118.4 -20.4 Q118.8 -20.4 118.8 -21.1 Q118.8 -21.8 119.15 -23.25 L119.15 -24.65 L118.05 -24.65 Q117.35 -26.75 116.3 -26.75 Q114.9 -28.2 113.45 -28.2 L109.2 -28.2 L108.85 -28.9 M105.3 -26.75 M105.3 -26.75 L105.3 -26.05 L106 -26.05 Q106.75 -26.05 107.1 -25.35 L107.8 -25.35 L107.8 -26.75 L105.3 -26.75 M106 -22.5 L104.6 -21.1 L102.85 -20.4 Q102.1 -21.8 102.5 -21.8 L104.25 -22.5 Q104.95 -23.95 104.95 -24.65 L100.7 -24.65 L99.3 -25.35 L98.95 -23.95 L100.35 -5.5 L106 -16.15 L106.75 -16.85 L106.35 -17.55 L106.75 -18.25 L106.75 -17.55 L107.1 -18.25 L107.1 -18.95 L107.45 -19.7 L107.1 -19.7 L107.45 -20.4 Q107.8 -19.7 107.45 -19.7 L107.45 -18.95 L108.5 -21.1 L108.15 -23.25 L108.15 -23.95 L107.1 -23.95 L107.1 -22.5 L106.75 -21.1 L106.75 -20.4 Q106.35 -20.4 106.35 -21.1 L106.75 -22.5 L106.75 -23.25 L106 -23.25 L106 -22.5 M97.5 -24.65 L97.5 -23.95 L96.45 -22.5 L95.4 -20.4 L96.45 -20.4 Q96.1 -20.4 95.75 -19.7 Q95.75 -18.95 95.4 -18.95 L95.75 -18.95 L96.8 -16.85 L97.5 -18.95 L97.5 -19.7 L97.85 -21.1 L98.2 -21.8 L97.85 -24.65 L97.5 -24.65 M93.25 -20.4 L91.85 -20.4 Q91.15 -20.4 90.8 -19.7 L90.45 -19.7 Q87.6 -16.85 87.6 -8.35 Q87.8 -10.9 89.35 -1.95 L90.45 1.6 L90.8 1.6 L91.15 2.3 L92.25 3.55 Q91.1 3 90.8 3 Q91.5 3.7 92.55 3.7 Q92.9 4.4 93.25 4.4 Q93.6 4.4 94.35 3.7 L95.05 3.7 L95.4 3 L95.75 3 L97.5 -1.25 L97.5 -1.95 L96.8 -1.95 L96.8 -2.65 L97.15 -2.65 Q96.8 -2.65 96.8 -4.1 L96.8 -4.8 L95.75 -4.8 L95.4 -5.5 L94.35 -5.5 L93.25 -6.2 L92.9 -6.9 L92.55 -6.9 L92.55 -6.2 L90.8 -6.2 L90.8 -5.5 L92.55 -4.1 L90.8 -4.8 L90.45 -4.8 Q90.05 -5.5 90.05 -6.2 L90.8 -6.2 L90.8 -6.25 Q90.8 -6.9 90.45 -6.9 Q90.05 -7.65 90.45 -9.75 L90.8 -9.75 L93.25 -15.45 L94.35 -18.95 L93.25 -20.4 M94.35 -17.55 L93.25 -14 L91.5 -10.45 L91.85 -10.45 L91.85 -9.75 L92.55 -9.75 L92.55 -9.7 Q92.55 -9.05 92.9 -9.05 L92.55 -9.05 L92.9 -8.35 L93.6 -8.35 L93.25 -9.05 L93.6 -9.05 Q93.95 -9.75 94.35 -9.75 L94.35 -9.05 L94.7 -9.05 L94.7 -9.75 L95.05 -11.2 L95.4 -11.2 L95.4 -11.9 L96.45 -15.45 Q96.1 -16.85 95.75 -16.85 L95.75 -16.9 Q95.75 -17.55 95.4 -17.55 L94.35 -17.55 M97.5 -16.15 M97.5 -16.15 L97.15 -16.15 L97.5 -16.85 L97.5 -17.55 L98.2 -19.7 L98.95 -9.05 Q98.6 -11.2 97.5 -14.7 L97.5 -16.15 M95.4 -8.3 M95.4 -8.3 Q95.4 -7.65 95.75 -8.35 L95.75 -9.05 L97.85 -9.05 L97.5 -10.45 L97.5 -11.9 Q97.15 -14 96.8 -14.7 L95.75 -11.9 L95.4 -9.75 L95.05 -9.05 L95.05 -8.35 L95.4 -8.35 L95.4 -8.3 M90.45 2.3 M90.45 2.3 Q88.2 -0.9 87.7 -7.05 Q88.4 -1.8 89.7 0.85 L90.45 2.3 M98.95 -1.95 M98.95 -1.95 Q99.65 -1.95 99.65 -2.65 L99.3 -3.4 L98.6 -3.4 L98.6 -2.65 L98.95 -1.95 M99.3 -4.8 L99.3 -5.5 L98.95 -4.8 L99.3 -4.8 M97.5 -6.9 L96.5 -7.35 Q96.55 -6.9 96.8 -6.9 L97.5 -6.9 M97.5 -6.9 Q97.5 -7.65 97.15 -7.65 L97.85 -7.65 L97.85 -6.9 L97.5 -6.9 M96.5 -7.35 M96.5 -7.35 L96.45 -7.65 L96.8 -7.65 L95.75 -8.35 L95.75 -7.65 L96.5 -7.35 M97.5 -5.5 L97.85 -5.5 L97.85 -6.2 L97.5 -6.2 L97.5 -5.5 M96.8 -5.5 M96.8 -5.5 L95.75 -5.5 L95.4 -6.2 L94.7 -6.2 L94.7 -6.9 L95.05 -6.9 L95.05 -7.65 L95.4 -7.65 L95.4 -6.9 L95.75 -6.9 L97.15 -6.2 L96.8 -5.5 M93.25 -6.9 M93.25 -6.9 L94.35 -6.2 Q93.6 -6.9 93.6 -7.65 L92.9 -7.65 L92.9 -6.9 L93.25 -6.9 M95.4 -3.4 L95.75 -2.65 L95.4 -2.65 L95.4 -3.4 M97.5 -4.1 M97.5 -4.1 L97.5 -3.4 L97.15 -3.4 L97.15 -4.8 L97.5 -4.1 M111.7 -17.55 Q113.45 -16.85 114.15 -16.15 Q117 -13.3 117.7 -4.8 Q117.7 6.3 113.5 7.2 L113 7.25 L112.9 7.25 L112.75 7.25 L112.7 7.2 Q111.7 6.5 111 5.1 L110.65 5.1 Q110.65 4.4 109.9 3.7 L108.85 0.85 L108.85 -0.55 Q108.5 -1.25 108.15 -3.4 L108.15 -4.1 L107.55 -5.9 L107.95 -10.3 L107.8 -9.75 L108 -11.05 L108.15 -12.6 L108.5 -13.3 L108.5 -12.6 Q108.5 -11.9 108.85 -11.9 L108.85 -11.2 L109.9 -8.35 L110.65 -6.9 L110.65 -6.2 L111 -5.5 L111 -4.8 Q111.35 -3.4 111.7 -3.4 Q112.4 -4.1 112.4 -4.8 L113.1 -4.8 Q113.8 -3.4 114.15 -3.4 Q114.9 -4.1 114.9 -4.8 Q114.15 -6.2 113.8 -6.2 Q112.4 -10.45 112.05 -12.6 L111.35 -17.55 L111.7 -17.55 M110.25 -17.55 L109.9 -17.55 L108.85 -16.15 L108.85 -18.25 L110.25 -18.25 L110.25 -17.55 M110.25 -18.95 Q110.65 -19.7 109.9 -21.1 L109.9 -19.7 L110.25 -18.95 M109.9 -16.15 Q110.25 -16.15 110.25 -16.85 Q110.65 -16.15 110.65 -15.5 L110.65 -14.7 L111.35 -12.6 Q112.4 -8.35 113.1 -6.9 Q113.1 -6.2 113.45 -6.2 L113.1 -5.5 L112.4 -5.5 L111.7 -6.2 L111.35 -6.2 L110.65 -7.65 Q110.65 -8.35 109.9 -9.75 Q109.55 -11.9 109.2 -12.6 Q109.2 -14 108.85 -14.7 Q109.55 -16.15 109.9 -16.15 M107.95 -10.3 L108.5 -12.6 L108.15 -11.9 L108 -11.05 L107.95 -10.3 M109.1 3.1 M109.1 3.1 L109.9 5.1 L109.55 3.7 L109.1 3.1 M0 0 M80.5 -53 L81.55 -51.55 Q81.55 -47.3 80.85 -46.6 Q81.2 -45.2 80.5 -44.5 L86.9 -40.95 Q88.3 -40.25 89 -40.25 Q89.7 -40.95 90.05 -40.25 L93.25 -42.35 Q93.6 -43.05 93.6 -42.35 L93.95 -42.35 Q95.05 -43.8 95.75 -43.8 Q96.8 -44.5 97.5 -44.5 L97.85 -43.8 Q96.8 -43.05 97.15 -42.35 L99.65 -42.35 Q99.65 -41.65 100 -41.65 L98.2 -40.25 Q97.15 -40.25 95.05 -40.95 Q95.4 -40.25 94.7 -39.55 Q95.05 -39.55 95.05 -38.8 L91.15 -34.55 L87.6 -35.25 L86.2 -35.25 L84.4 -36.7 Q83.7 -31.75 84.4 -29.6 L84.4 -28.9 L85.45 -21.1 Q84.75 -21.1 84.4 -20.4 L84.4 -11.2 L85.8 0.85 L85.45 2.3 Q86.2 3 86.2 3.7 Q85.45 4.4 84.75 4.4 Q82.65 5.1 82.3 3.7 Q81.9 3 81.9 2.3 L81.2 2.3 L77.3 -19.7 L76.25 -19.7 Q75.9 -16.85 75.9 -15.45 L75.55 -9.05 L74.5 -1.25 Q74.5 0.15 73.4 0.85 Q73.75 2.3 73.4 3 L70.6 3 L66.35 3.7 Q65.6 3 66 3 L68.45 0.85 L68.45 0.15 L70.25 -10.45 L70.25 -20.4 L68.45 -21.8 Q70.6 -33.85 70.25 -35.25 Q69.5 -36 69.5 -35.25 L66.35 -35.25 L61 -38.8 Q60.65 -39.55 60.65 -40.25 L60.65 -41.65 L58.55 -42.35 Q56.4 -43.8 56.4 -44.5 Q55 -46.6 56.4 -46.6 Q58.2 -45.9 58.9 -45.2 L59.25 -45.2 Q58.9 -46.6 59.95 -47.3 Q59.95 -46.6 60.3 -45.9 Q61.75 -44.5 61.35 -43.8 Q62.1 -43.05 62.45 -43.8 L66.7 -39.55 Q67.4 -40.25 68.1 -40.25 Q68.8 -40.95 69.5 -40.95 L71.65 -43.05 L76.6 -44.5 Q76.25 -45.2 76.25 -45.9 Q75.9 -47.3 75.9 -48.05 L75.9 -50.85 L77.3 -53 L80.5 -53 M0 0 M106.35 -22.5 L106 -19.7 L104.95 -18.25 Q104.6 -16.85 103.9 -17.55 L103.55 -17.55 Q103.2 -14 103.2 -11.9 Q103.2 -10.45 103.55 -9.75 Q103.55 -8.35 103.2 -8.35 L104.25 3 L104.25 3.7 Q105.3 5.1 104.95 6.55 L102.1 7.25 Q101.05 6.55 100.7 5.85 Q99.65 5.85 99.65 4.4 L99.3 4.4 L98.95 -2.65 Q98.95 -4.8 98.6 -6.2 L98.2 -7.65 L97.85 -14 L97.5 -14 Q97.15 -11.2 97.15 -9.75 Q97.5 -7.65 96.1 -4.1 L95.75 4.4 L95.4 4.4 L95.4 6.55 L91.15 6.55 Q90.05 5.85 90.45 5.85 L91.15 4.4 Q91.15 3.7 90.8 3.7 Q91.15 3 91.15 -2.65 L92.2 -9.75 L91.85 -17.55 L92.2 -22.5 L92.9 -24.65 L92.9 -31.75 L89.7 -36.7 L85.45 -37.4 Q84.4 -36.7 83.7 -36.7 Q82.65 -37.4 80.15 -37.4 L79.45 -38.1 L77.3 -36 L75.9 -36.7 L75.55 -38.1 Q74.5 -38.8 73.75 -38.8 L73.75 -39.55 L79.1 -39.55 L79.1 -40.25 Q80.15 -40.25 81.9 -40.95 Q83 -40.25 84.4 -40.95 L85.1 -40.95 L88.65 -40.25 L92.55 -40.95 L93.6 -40.95 Q95.75 -40.25 96.45 -41.65 Q96.1 -43.8 95.4 -44.5 Q94.35 -47.3 95.4 -48.05 Q98.2 -51.55 98.95 -50.85 L99.65 -50.85 L100.35 -50.15 Q101.05 -49.45 101.05 -48.75 L101.75 -46.6 Q102.1 -45.2 101.75 -45.2 Q101.4 -43.8 100.7 -43.8 Q99.3 -41.65 99.65 -40.95 L103.55 -38.8 L104.6 -36 Q105.65 -33.15 105.3 -32.45 Q106 -30.3 105.65 -29.6 L106.35 -27.5 Q106.75 -26.05 106.35 -25.35 Q106.75 -23.95 106.35 -22.5 M0 0 M61.4 51.55 L61.05 54.4 Q60.7 54.4 60.7 55.1 L59.3 59.35 L59.65 60.05 L63.2 60.75 Q63.9 62.2 64.25 62.2 Q65.3 64.3 65.3 65.75 Q65.3 68.55 65.65 70.7 L65.65 73.55 L66.35 77.05 Q66.35 79.9 67.45 82.75 Q67.8 84.85 65.3 87 Q61.75 111.8 62.1 114.65 Q62.8 116.05 63.9 116.75 L64.6 116.75 Q67.45 117.45 67.1 118.9 L63.55 119.6 L60.35 118.9 L58.95 118.9 Q56.8 118.9 56.8 118.2 L56.45 112.5 L57.5 101.15 L56.8 91.25 L55.75 94.8 Q55.4 98.35 55.4 99.75 Q55.05 101.9 53.95 104.7 L53.6 113.2 L52.9 118.2 L52.9 120.3 L52.2 121.7 L51.15 123.15 Q50.05 124.55 48.65 123.85 Q47.6 123.85 46.9 123.15 L47.6 121 Q49 119.6 48.65 118.2 L47.95 108.95 L48.65 103.3 L48.65 101.9 Q49.35 100.45 49.35 99.75 Q49.35 99.05 49 99.05 L49.35 98.35 Q49 97.65 49 96.9 Q49 94.1 49.35 93.35 L49 92.65 Q49 89.85 48.65 88.4 L47.6 87.7 L47.95 85.6 L46.5 84.85 Q46.9 84.15 46.9 83.45 L44.4 79.9 Q44.05 79.2 44.05 78.5 Q41.55 75.65 43.7 68.55 Q43.35 67.15 43.7 66.45 Q43.7 64.3 44.4 63.6 L46.15 59.35 L50.4 58.65 Q52.2 57.95 52.55 57.25 Q52.55 54.4 52.2 52.25 Q52.9 48.75 54.3 48 Q55.75 47.3 56.8 47.3 L59.65 48 Q60.7 48.75 61.4 51.55 M0 0 M109.4 28.1 Q109.05 30.95 107.95 30.95 Q106.9 31.65 106.9 32.35 L109.05 35.2 L111.85 35.9 L114 43.7 Q113.65 46.5 113.65 48.65 L114.35 55.75 L112.6 79.1 Q112.25 82.65 111.85 94.7 Q113.3 96.15 115.4 96.85 Q115.4 98.95 112.25 98.95 L108.35 96.85 Q106.2 96.85 106.2 96.15 Q106.9 92.6 106.55 80.55 Q106.9 77.7 106.2 77.7 L105.15 69.2 L103.35 78.4 L103.35 79.85 Q102.65 82.65 103.7 92.6 L103 94.7 Q104.1 98.25 104.1 98.95 Q103.35 101.1 100.55 99.65 Q98.05 98.25 97.7 97.55 Q97.35 94.7 97 94 L97 86.9 L97.7 77.7 Q98.05 74.15 97.35 64.25 L97.35 60 Q97.35 58.55 97 57.85 L96.65 57.85 Q92.4 51.5 92.05 50.05 Q88.85 43 94.5 37.3 Q95.55 33.75 97 33.05 L98.05 33.05 Q99.8 33.05 101.25 30.95 Q101.25 30.2 100.9 29.5 Q101.6 28.8 101.25 28.1 Q100.55 25.25 100.9 23.85 L104.1 20.3 Q108.35 20.3 109.75 22.45 L109.75 23.85 L109.4 23.85 L109.75 25.95 Q110.8 27.4 109.4 28.1 M96.65 46.5 L96.65 47.95 L97 48.65 L97.35 48.65 L97.35 49.35 Q97.7 50 97.7 50.7 L97.7 47.95 L97.35 47.95 L97.35 46.5 L96.65 46.5 M0 0 M28.75 -53.7 L25.25 -53 L21.7 -53.7 L21 -53.7 Q19.9 -53.7 18.15 -54.4 Q18.5 -55.85 19.2 -56.55 Q19.55 -59.35 18.85 -60.8 L15.65 -62.2 L14.25 -61.5 Q13.9 -60.1 13.9 -59.35 L13.55 -57.95 Q13.2 -55.85 13.9 -55.85 Q15.3 -54.4 14.95 -53.7 L10 -51.55 Q9.3 -49.45 9.3 -48.75 L8.2 -40.95 Q8.6 -39.55 8.95 -38.8 Q9.3 -35.25 9.65 -33.85 Q10 -31 11.05 -31.75 L11.4 -31.75 L11.75 -26.05 Q11.4 -24.65 11.4 -23.95 Q11.4 -23.25 11.75 -22.5 Q11.4 -19.7 11.4 -18.25 L10.7 -11.9 Q9.65 -9.75 10 -9.05 Q11.75 -8.35 12.85 -8.35 L13.9 -9.05 Q14.95 -9.75 14.95 -10.45 Q15.3 -10.45 15.3 -11.2 Q15.3 -15.45 15.65 -17.55 Q15.65 -19.7 16 -21.1 L16.35 -22.5 Q16.75 -26.75 17.1 -28.9 Q17.45 -26.75 17.45 -23.95 Q17.1 -21.8 18.15 -18.95 L18.5 -11.2 Q18.85 -11.2 18.85 -10.45 L19.2 -9.05 Q21.7 -7.65 23.1 -9.05 L23.8 -9.75 L23.1 -11.2 L23.1 -17.55 L22.4 -23.95 L22.4 -31.75 Q22.05 -34.55 22.05 -36 L23.45 -43.8 Q23.45 -48.05 25.25 -48.75 L28.4 -50.15 Q29.5 -49.45 30.2 -50.15 Q32.65 -50.85 33.75 -50.15 Q33.75 -50.85 34.1 -50.85 L36.2 -49.45 L37.3 -50.15 L37.65 -50.85 L39.4 -51.55 L39.4 -52.3 L34.45 -53 L31.6 -53.7 L28.75 -53.7" fill="#8f8d86" fill-rule="evenodd"/></svg>