<svg xmlns="http://www.w3.org/2000/svg" viewBox="0 0 389.9 45"><path d="M387.05 11.25 Q387 12.25 385.4 12.25 L384.3 12.25 L384.3 10.2 L385.85 10.2 Q387.05 10.2 387.05 11.25 M388.25 9.6 Q389.4 10.75 389.45 12.4 Q389.4 14.05 388.25 15.2 Q387.15 16.35 385.5 16.35 Q383.85 16.35 382.75 15.2 Q381.55 14.05 381.55 12.4 Q381.55 10.75 382.75 9.6 Q383.85 8.4 385.5 8.45 Q387.15 8.4 388.25 9.6 M385.5 8 Q383.7 8 382.4 9.3 Q381.1 10.55 381.15 12.4 Q381.1 14.2 382.4 15.55 Q383.7 16.85 385.5 16.85 Q387.35 16.85 388.65 15.55 Q389.9 14.25 389.9 12.4 Q389.9 10.55 388.65 9.3 Q387.3 8 385.5 8 M385.85 9.75 L383.8 9.75 L383.8 15.05 L384.3 15.05 L384.3 12.65 L385.65 12.65 L387.2 15.05 L387.75 15.05 L386.2 12.65 Q387.5 12.45 387.55 11.25 Q387.5 9.75 385.85 9.75 M372.2 14 M372.2 14 Q368.65 11.4 362.35 11.4 Q353.35 11.4 349.5 17.2 L349.3 17.2 L349.3 12.45 L343.05 12.45 L343.05 43.9 L349.3 43.9 L349.3 25.75 Q349.3 21.35 352.6 18.75 Q355.6 16.4 360.15 16.4 Q369.85 16.4 369.9 23.65 L369.9 43.9 L376.15 43.9 L376.15 22.5 Q376.15 16.85 372.2 14 M326.9 11.8 M326.9 11.8 L323.3 11.4 Q316.05 11.4 312.05 18.2 L311.85 18.2 L311.85 12.45 L305.6 12.45 L305.6 43.9 L311.85 43.9 L311.85 27.95 Q311.85 23 314.85 20.25 Q317.6 17.65 322.45 17.65 L326.9 18.2 L326.9 11.8 M268.4 11.4 Q259.2 11.4 254.05 16.4 Q249.25 21 249.3 28.15 Q249.25 35.35 254.05 40 Q259.2 45 268.4 45 Q277.6 45 282.75 40 Q287.5 35.35 287.5 28.15 Q287.5 20.95 282.75 16.4 Q277.6 11.4 268.4 11.4 M278 20.15 Q280.8 23.35 280.85 28.15 Q280.8 33.05 278 36.2 Q274.7 39.95 268.4 39.95 Q262.05 39.95 258.8 36.2 Q255.95 33.05 255.95 28.15 Q255.95 23.35 258.8 20.15 Q262.05 16.4 268.4 16.4 Q274.7 16.4 278 20.15 M202.75 17.2 L202.75 0.7 L196.5 0.7 L196.5 43.9 L202.75 43.9 L202.75 39.85 L202.85 39.85 Q204.6 42.25 208.2 43.65 Q211.55 45 215.35 45 Q223.05 45 228.05 40.6 Q233.25 36.05 233.25 28.4 Q233.25 20.65 228.05 16.1 Q223.05 11.75 215.35 11.8 Q211.45 11.75 208.2 13.05 Q204.65 14.5 202.85 17.2 L202.75 17.2 M214.55 16.8 Q220.05 16.75 223.3 19.9 Q226.55 23 226.6 28.4 Q226.6 33.25 223.8 36.4 Q220.55 39.95 214.55 39.95 Q208.55 39.95 205.25 36.4 Q202.4 33.25 202.4 28.4 Q202.4 23.05 205.75 19.9 Q209 16.75 214.55 16.8 M166 2.8 L159.7 2.8 L159.7 12.45 L152.9 12.45 L152.9 17.15 L159.7 17.15 L159.7 37.55 Q159.7 45 168.4 45 L175.4 44.6 L175.4 39.5 L171.1 39.95 Q165.95 39.95 166 36.55 L166 17.15 L175.4 17.15 L175.4 12.45 L166 12.45 L166 2.8 M130.65 21.95 L136.95 21.95 Q135.9 11.4 120.9 11.4 Q113.9 11.4 109.9 14.05 Q105.85 16.75 105.85 21.55 Q105.85 25 108.55 27.3 Q110.95 29.35 114.8 29.9 L125.15 31.15 Q128.75 31.65 130.15 32.7 Q131.35 33.6 131.35 35.4 Q131.35 40.3 121.3 40.3 Q115.9 40.3 113.15 38.25 Q110.95 36.5 110.95 34 L104.7 34 Q105.5 45 121.45 45 Q129.2 45 133.5 42.4 Q138 39.6 138 34.3 Q137.95 27.4 126.5 25.9 L117.6 24.75 Q114.4 24.3 113.2 23.35 Q112.1 22.55 112.1 20.85 Q112.1 18.3 114.95 17.1 Q117.2 16.05 120.8 16.1 Q125.45 16.05 128.1 17.85 Q130.5 19.4 130.65 21.95 M89.75 11.8 L86.15 11.4 Q78.9 11.4 74.85 18.2 L74.7 18.2 L74.7 12.45 L68.45 12.45 L68.45 43.9 L74.7 43.9 L74.7 27.95 Q74.7 23 77.7 20.25 Q80.45 17.65 85.3 17.65 L89.75 18.2 L89.75 11.8 M46.35 0.7 L40.05 0.7 L40.05 7.3 L46.35 7.3 L46.35 0.7 M46.35 12.45 L40.05 12.45 L40.05 43.9 L46.35 43.9 L46.35 12.45 M22.25 12.45 L13 12.45 L13 8.05 Q12.95 6.25 14.35 5.6 Q15.5 5 18.75 5 L22.25 5.1 L22.25 0.45 L16.8 0 Q6.7 -0.05 6.7 7.8 L6.7 12.45 L0 12.45 L0 17.15 L6.7 17.15 L6.7 43.9 L13 43.9 L13 17.15 L22.25 17.15 L22.25 12.45" fill="#8f8d86" fill-rule="evenodd"/></svg>