<svg xmlns="http://www.w3.org/2000/svg" viewBox="-37.15 -87.9 64.65 176.65"><path d="M11.4 -83.05 L12.15 -82.1 L13.05 -80.1 L13.5 -77.2 Q13.5 -76 13.15 -74.75 L14.55 -71.85 L13.9 -70.65 L13.75 -70.75 L14.1 -68.9 L13.5 -68.45 L13.9 -67.25 L11.9 -66 L11.2 -65.85 L10.75 -66.1 L10.35 -65.05 L10.35 -64.35 L10.35 -63.9 L10.85 -63.9 L12.1 -62.6 L15.4 -59.45 L15.5 -58.5 Q21.65 -54.4 22.95 -52.1 Q24.7 -48.7 25.4 -44.9 Q25.65 -43.55 25.4 -42.05 L25.05 -39.75 L24.75 -38.1 Q21 -22.9 19.95 -17.25 Q19.45 -14.4 19.45 -11.4 L20.4 7.15 L18.05 8.55 L17.15 8.9 L17.15 9.15 L17.15 18.85 L18.05 29.55 L18.45 34.6 L18.8 39.8 L19.95 47.05 L19.8 66.1 L19.6 69.35 L19.6 76.55 L19.45 78.3 L19.15 78.45 L19.25 79.85 L18.8 82.4 Q18.65 83.1 17.95 83.35 L15.5 84.15 L12.7 85.7 L9.35 86.45 L5.7 86.75 L2.35 86.05 L1.5 85.45 Q1.55 85 1.75 84.65 L4.45 80.45 L3.35 80.75 L0.25 81.35 Q-3.85 82.8 -6.4 83 L-10.05 83.1 L-12.15 82.65 L-12.95 82.15 L-12.75 81.45 L-12.25 80.45 L-11.2 79.35 L-5.4 75.4 L-5.7 74.25 L-6.4 72.7 L-6.4 71.65 Q-6.5 69.35 -6.75 67 Q-7.45 59.55 -8.4 52.1 L-10.4 34.35 L-11.8 18.85 L-12.4 8.9 L-13.45 8.3 L-12.35 -14.4 L-12.35 -14.9 L-16.6 -14.2 Q-17.45 -16.2 -17.85 -18.85 L-20.65 -18.6 L-20.75 -20.05 L-20.75 -21.2 L-20.9 -21.2 L-23.2 -21.4 L-25.1 -21.8 L-29.15 -24 Q-31.15 -25.05 -33.35 -25.65 L-34.9 -26.1 L-35.15 -26.55 L-35.15 -26.8 L-35 -27.15 L-34.9 -27.25 L-33.75 -27.35 L-30.9 -27.25 Q-32.05 -27.85 -33.05 -28.65 Q-34.05 -29.25 -34.9 -30.05 L-35 -30.3 L-35 -30.55 L-34.9 -30.9 L-34.45 -31.2 L-34.55 -31.55 L-34.65 -31.95 L-34.45 -32.15 L-33.75 -32.25 L-30.95 -31.35 L-28 -29.95 L-28.7 -30.85 Q-29.5 -31.55 -30.45 -32.05 L-32 -32.65 L-32.35 -33.1 L-32.45 -33.45 L-32.45 -33.7 L-32 -34 L-29.9 -33.55 Q-28.5 -33.1 -27.45 -32.3 Q-26 -31.2 -24.85 -29.8 L-24.6 -29.8 L-22.2 -27.95 L-20.55 -26.55 L-20.4 -26.35 L-20.3 -26.9 L-20.1 -27 L-17.6 -27.75 L-11.45 -28.9 L-11.3 -29.1 L-11.3 -29.15 L-8.2 -42.3 L-6.45 -48.05 L-4.65 -52 L-1.85 -56.3 L-1.85 -56.4 L-1.75 -56.45 L-0.7 -58.5 Q-0.35 -59.2 -0.15 -59.9 L0.25 -61.8 L-0.35 -62.4 L-1.4 -62.75 L-1.75 -62.95 L-2.1 -63.05 L-2.55 -63.75 L-3.15 -66.6 L-3.95 -67.3 L-4.1 -68.2 L-4.4 -68.5 L-5.7 -68.1 L-6.4 -68.35 L-6.4 -69 Q-6.65 -70.15 -5.75 -72.15 L-8.5 -72.4 Q-10.25 -72.75 -11.8 -74.25 L-5.75 -77.8 L-3.95 -81.5 L-3.25 -82.1 L-2.35 -83.5 L-1.15 -83.95 L-0.85 -84.8 L0 -85.15 L2.8 -85.85 L7.25 -85.35 Q9.45 -84.55 11.4 -83.05" fill="#999999" fill-rule="evenodd"/></svg>