<svg xmlns="http://www.w3.org/2000/svg" viewBox="-20.45 -51.25 41.25 101.8"><path d="M18.05 -45.7 L18.8 -45 L18.8 -43.55 Q18.05 -42.15 17.35 -42.85 L14.5 -39.3 Q15.6 -38.6 16.3 -35.05 Q14.9 -34.35 13.45 -32.25 Q12.4 -29.4 11.35 -28.7 L6.35 -17.35 L8.5 -6 Q9.85 -4.15 9.55 -3.9 L8.85 -3.15 L10.25 3.2 L6 3.9 Q5.65 6.05 4.25 22.35 Q4.25 26.6 3.9 28.7 Q2.85 32.95 2.85 42.2 Q4.95 43.6 5.65 45 Q4.25 45.7 3.55 46.45 L-0.35 45.7 L-3.2 42.2 Q-3.55 42.9 -3.9 42.2 L-6.05 40.05 L-3.9 25.9 L-3.55 25.15 L-3.2 16.65 Q-2.85 13.15 -3.2 13.15 L-5.3 22.35 L-7.1 30.15 L-8.85 41.45 L-10.3 42.2 L-9.3 44.65 Q-8.35 47.35 -8.5 48.55 L-12.4 48.55 L-14.9 47.15 Q-14.9 45 -15.25 44.3 Q-17.35 42.9 -15.25 40.05 Q-15.95 40.05 -15.95 39.35 L-12.75 22.35 L-11.7 13.15 Q-11.35 7.45 -11 5.35 L-9.95 -3.15 Q-9.2 -4.6 -9.95 -5.3 Q-9.55 -6.7 -9.55 -8.15 L-11 -8.85 L-11.7 -3.15 Q-13.1 -0.35 -13.45 1.8 Q-14.2 4.6 -14.2 6.75 Q-15.25 6.75 -13.85 8.15 L-14.9 11 L-17.7 9.6 Q-18.45 8.85 -18.1 7.45 L-18.45 7.45 Q-18.45 1.1 -18.1 -1.05 Q-18.1 -3.15 -16.65 -4.6 Q-16.65 -6.7 -17 -8.15 L-16.3 -15.2 Q-15.95 -18.05 -16.3 -19.45 L-12.4 -21.6 L-10.3 -23.7 Q-10.3 -25.85 -9.2 -26.55 L-11 -27.95 Q-12.05 -29.4 -12.75 -32.95 Q-9.6 -36.75 -8.85 -37.2 Q-3.9 -37.9 -3.55 -36.5 L-3.9 -36.5 Q-1.8 -35.05 -2.15 -33.65 Q-1.4 -32.95 -1.05 -32.25 Q-0.7 -32.25 -1.05 -31.5 Q-0.35 -30.8 -1.4 -30.1 Q-1.05 -29.4 -0.7 -29.4 Q2.85 -29.4 3.2 -28.7 Q3.4 -28.35 3.8 -28.7 L4.25 -29.4 L5.65 -31.5 Q6 -31.5 6.35 -32.25 L11 -40 L12.05 -40.75 L16.65 -49.25 Q17 -49.25 17 -48.5 Q16.3 -47.1 16.3 -46.4 Q17.7 -47.1 18.05 -45.7" fill="#999999" fill-rule="evenodd"/></svg>