<svg xmlns="http://www.w3.org/2000/svg" viewBox="-33.1 -64.2 154.25 195.7"><path d="M-7.35 30.35 L-7 30.35 L-7.35 31.75 Q-7 32.45 -7.35 32.45 L-8.05 34.6 L-7 34.6 L-7.35 36 L-7.35 36.75 L-7 37.45 L-5.55 37.45 Q-4.5 37.45 -4.5 38.15 L-6.65 41 Q-8.05 41.7 -8.4 42.4 Q-9.1 48.75 -8.05 49.5 Q-7 50.9 -7.35 53.05 Q-9.1 56.55 -8.75 59.4 L-10.15 67.9 L-9.8 82.1 Q-9.45 85.65 -9.45 96.95 L-12.65 99.1 Q-12.3 100.5 -9.45 100.5 Q-8.4 100.5 -5.55 99.1 Q-3.8 98.4 -4.15 97.65 Q-4.5 94.85 -4.15 83.5 Q-4.5 81.35 -4.15 80.65 Q-3.8 77.85 -3.8 76.4 L-3.1 72.85 L-0.95 81.35 Q-1.3 82.1 -0.95 82.8 L-0.95 86.35 Q-1.3 92.7 -1.65 93.4 L-2.35 96.25 Q-4.85 99.8 -4.15 100.5 L-0.6 101.2 L1.9 99.1 L1.9 96.95 Q3.3 94.15 3.3 92.7 Q5.4 83.5 4.7 80.65 Q3.65 72.85 4 71.45 L4.35 64.35 Q3.65 61.55 4.35 60.8 Q8.6 55.15 8.95 53.75 Q10.4 49.5 7.9 43.8 Q7.2 39.55 4.35 39.55 Q2.6 39.55 0.45 37.45 L0.8 36 Q0.8 35.3 1.15 34.6 Q1.5 31.75 1.15 30.35 L-2 27.5 Q-5.9 27.5 -7.35 29.65 L-7.35 30.35 M0 0" fill="#888888" fill-rule="evenodd"/><path d="M-4.55 7.05 M-889.9 -1149.6 M8 0.7 Q29.75 -49.95 -10.6 -0.3" fill="#999" fill-rule="evenodd"/><path d="M-4.55 7.05 M-889.9 -1149.6" fill="#999" fill-rule="evenodd"/><path d="M-889.9 -1149.6 M8 0.7 Q29.75 -49.95 -10.6 -0.3" fill="#999" fill-rule="evenodd"/></svg>