<svg xmlns="http://www.w3.org/2000/svg" viewBox="-19.35 -51.35 38.6 102.7"><path d="M10.45 -44.4 L10.25 -43 L11.05 -41.35 L10.65 -40.7 L10.8 -39.65 L10.45 -39.4 L10.7 -38.7 L8.95 -37.9 L8.65 -37.05 L9.95 -35.8 L11.55 -34.25 L11.6 -33.7 Q13 -32.75 14.35 -31.75 Q15.3 -31.05 15.85 -30.05 Q16.85 -28.1 17.25 -25.95 L17.05 -23 L16.3 -19.7 Q15.05 -14.95 14.15 -10.15 Q13.85 -8.5 13.85 -6.8 L14.4 3.8 L13.05 4.6 L12.55 4.8 L12.55 4.95 L12.5 8.85 L12.55 10.5 L13.05 16.6 L13.3 19.5 L13.5 22.45 L14.15 26.6 L14.05 37.5 L13.95 39.35 L13.95 40.45 L13.35 47.15 L13 47.35 Q12.3 47.55 11.65 47.9 L9.95 48.6 L8.3 49.2 L7.2 49.35 L6 49.3 Q4.75 49.4 3.6 48.55 L5.3 45.7 L2.95 46.35 L0.3 47 L-1.9 47.25 L-3 47.2 L-3.6 47.15 Q-4.7 47.15 -4.55 46.25 L-3.55 45.2 L-0.35 42.8 L-0.9 40.45 L-1.1 38 L-2.05 29.5 L-3.15 20.9 Q-3.1 20.15 -3.2 19.35 L-4 10.5 L-4.35 4.8 L-4.95 4.45 L-4.9 2.65 L-4.3 -8.5 L-4.3 -8.8 L-6.75 -8.4 L-7.1 -9.45 L-7.45 -11.05 L-9.05 -10.9 L-9.1 -11.75 L-9.1 -12.4 L-9.2 -12.4 L-10.5 -12.5 L-11.6 -12.75 L-13.9 -14 L-16.3 -14.95 L-17.2 -15.2 L-17.35 -15.45 L-17.35 -15.6 L-17.25 -15.8 L-17.2 -15.85 L-16.55 -15.9 L-14.9 -15.85 L-16.15 -16.65 L-17.2 -17.45 L-17.25 -17.6 L-17.25 -17.75 L-17.2 -17.95 L-16.95 -18.1 L-17 -18.3 L-17.05 -18.55 L-16.95 -18.65 L-16.55 -18.7 L-14.95 -18.2 L-13.25 -17.4 L-13.65 -17.9 L-14.65 -18.6 L-15.55 -18.95 L-15.75 -19.2 L-15.8 -19.4 L-15.8 -19.55 L-15.55 -19.7 L-14.35 -19.45 L-12.95 -18.75 L-11.45 -17.3 L-11.3 -17.3 L-9.95 -16.25 L-9 -15.45 L-8.9 -15.35 L-8.85 -15.65 L-8.75 -15.7 L-7.3 -16.15 L-3.8 -16.8 L-3.7 -16.9 L-3.7 -16.95 L-1.95 -24.45 Q-1.1 -27.8 0.1 -30 L1.7 -32.45 L1.7 -32.5 L1.75 -32.55 L2.35 -33.7 L2.65 -34.5 L2.9 -35.6 L2.55 -35.95 L1.95 -36.15 Q1.85 -36.15 1.75 -36.25 L1.55 -36.3 L1.3 -36.7 L0.95 -38.35 L0.5 -38.75 L0.4 -39.25 L0.25 -39.4 L-0.5 -39.2 L-0.9 -39.35 L-0.9 -39.7 Q-1.05 -40.35 -0.55 -41.5 L-2.1 -41.65 Q-3.1 -41.85 -4 -42.7 L-0.55 -44.75 L0.2 -46.2 L1.4 -48 L2.1 -48.25 L2.25 -48.75 L3.3 -49.1 L4.35 -49.35 L6.9 -49.05 Q8.15 -48.6 9.25 -47.75 L9.7 -47.2 L10.2 -46.05 L10.45 -44.4" fill="#999999" fill-rule="evenodd"/></svg>