<svg xmlns="http://www.w3.org/2000/svg" viewBox="-18.25 -50.7 36.55 101.45"><path d="M-3.4 -41.7 Q-3.35 -40 -2.7 -39.15 L-2.45 -39.4 L-2.3 -36.95 L-2.55 -36.6 L-2.85 -35.95 L-2.85 -36 L-5.25 -34.85 L-11.5 -32.9 L-12.15 -32.75 L-12.65 -32.4 L-13.3 -30.55 L-15.1 -22.9 L-15.75 -15.9 L-16.25 -13.75 L-16.25 -12.9 L-15.3 -9.15 L-15.05 -7.2 L-12.85 0.15 L-12.2 -1.25 L-11.3 -2.1 L-10.8 -2.45 L-11.3 -1.6 L-12.1 1.15 L-10.65 3.8 L-10.4 5.75 L-9.65 8.5 L-8.25 19.3 L-8.25 21.9 L-7.6 26.05 L-7.95 39.25 L-7.35 39.45 L-8.9 42.5 L-10.15 43.9 L-10.85 45.45 L-10.95 46.35 L-10.8 46.8 L-9.65 47.35 L-8.6 47.5 L-7.05 47.25 L-5.8 46.7 L-4.95 46 L-3.35 43.75 L-1.15 42.4 L-0.9 41.9 L-1 40.7 L-0.15 40.3 L-0.55 30.15 L-0.35 27.45 L-0.9 19.2 L-0.25 8.5 L1.15 16.7 L2.6 36.3 L2.6 39.8 L3.25 40.4 L3.25 42.7 L3.55 43.2 L5.15 44.3 L5.55 44.85 L6.45 46.8 L7.35 47.75 L8.35 48.3 L9.75 48.75 L10.15 48.75 L11.1 48.65 L11.95 48.45 Q12.15 47.35 11.95 46.3 Q11.65 44.8 10.9 43.4 L10.15 41.95 L9.8 41.25 L10.6 41.1 L10.15 38.35 L10.1 37.65 L9.3 33.4 L9.3 25.4 L9.6 22.15 L9.3 18.7 L9.95 4.9 L10.15 4.9 L11.85 4.45 L13.2 3.75 L15.3 -0.7 L15.2 -0.85 L15.5 -0.95 L15.65 -2.5 L16.3 -2.1 L15.85 -11.1 L15.3 -16.6 L14.9 -18.7 L13.5 -24.65 L11.9 -31.85 L10.85 -32.65 L10.15 -33 L7.05 -33.75 L4.05 -35.2 L3.75 -35.55 L3.75 -36.3 L4.55 -38.6 L5.05 -38.65 Q6.1 -40.65 6 -41.65 L5.8 -42.05 L5.5 -41.75 L5.5 -43.2 Q5.55 -46.05 4.25 -47.55 Q3.1 -48.85 1.35 -48.65 Q-0.35 -48.45 -1.55 -46.9 Q-2.9 -45.15 -2.85 -42.5 Q-3.45 -43.45 -3.4 -41.7 M10.15 -9.65 L10.35 -6.4 L10.6 -3.7 L10.8 -3.7 L10.6 -2.5 L11.1 -2.4 L10.25 -1.45 L10.25 -2.3 L10.15 -2.9 L9.25 -9.65 L9.3 -15.2 L9.9 -13.45 L10.15 -9.65" fill="#999999" fill-rule="evenodd"/></svg>